<svg width="240" height="240" viewBox="0 0 240 240" fill="none" xmlns="http://www.w3.org/2000/svg">
<g clip-path="url(#clip0_274_294)">
<g clip-path="url(#clip1_274_294)">
<path d="M122.695 194.405L124.499 83.2242C124.523 81.6038 124.019 80.0189 123.061 78.7031C122.104 77.3874 120.744 76.4104 119.183 75.9163L39.6394 50.8741C39.5389 50.844 39.4493 50.786 39.3811 50.7069C39.313 50.6279 39.2693 50.5312 39.2552 50.4284C39.2411 50.3255 39.2572 50.2208 39.3016 50.1267C39.346 50.0326 39.4168 49.9531 39.5056 49.8976L52.988 41.2226C53.0564 41.1769 53.1346 41.1474 53.2164 41.1365C53.2982 41.1256 53.3815 41.1335 53.4597 41.1596L137.605 69.3014C137.715 69.3375 137.809 69.407 137.876 69.4999C137.942 69.5928 137.977 69.7042 137.975 69.818L136.063 186.322C136.06 186.409 136.036 186.495 135.994 186.571C135.952 186.648 135.893 186.714 135.821 186.763L123.556 194.859C123.473 194.918 123.376 194.953 123.274 194.96C123.173 194.967 123.071 194.946 122.982 194.899C122.892 194.851 122.817 194.78 122.767 194.693C122.716 194.605 122.691 194.506 122.695 194.405Z" fill="#FFF3DE"/>
<path d="M30.8996 52.3546C30.9078 51.4872 31.0921 50.6303 31.4415 49.8346C33.2583 45.6578 40.162 32.9697 55.1234 36.6678C71.2705 40.6556 131.741 60.1098 143.145 63.789C143.683 63.962 144.152 64.2992 144.484 64.7519C144.816 65.2046 144.994 65.7497 144.994 66.3089L144.356 189.447C144.356 189.607 144.313 189.765 144.233 189.904C144.153 190.043 144.037 190.16 143.898 190.242C143.758 190.324 143.6 190.368 143.438 190.371C143.276 190.375 143.115 190.336 142.973 190.26L136.566 186.858C136.415 186.775 136.289 186.654 136.201 186.506C136.114 186.359 136.068 186.191 136.069 186.02L137.981 70.1015C137.985 69.9042 137.925 69.7109 137.81 69.5492C137.696 69.3874 137.533 69.2655 137.344 69.2006L54.1162 41.3801C53.8335 41.2861 53.533 41.2565 53.2371 41.2936C52.9413 41.3307 52.6577 41.4335 52.4078 41.5943L41.335 49.4566C41.195 49.5578 41.086 49.6951 41.0199 49.8535C40.9537 50.0118 40.933 50.1852 40.96 50.3544C40.987 50.5237 41.0607 50.6823 41.173 50.8129C41.2852 50.9434 41.4317 51.0409 41.5963 51.0946L122.695 76.9873C123.244 77.1607 123.721 77.5045 124.057 77.9676C124.392 78.4307 124.567 78.9883 124.556 79.5577L122.72 201.776C122.715 202.131 122.626 202.48 122.458 202.794C122.291 203.108 122.05 203.378 121.757 203.583C121.463 203.787 121.125 203.92 120.77 203.971C120.414 204.022 120.052 203.988 119.712 203.874L29.6247 173.597C29.4361 173.534 29.2726 173.413 29.158 173.252C29.0434 173.091 28.9836 172.899 28.9872 172.702L30.8996 52.3546Z" fill="#03002C"/>
</g>
<g clip-path="url(#clip2_274_294)">
<g clip-path="url(#clip3_274_294)">
<g clip-path="url(#clip4_274_294)">
<path d="M190.818 187.834L192.909 58.7072C192.936 56.8253 192.352 54.9845 191.243 53.4564C190.133 51.9282 188.557 50.7936 186.747 50.2197L94.5575 21.1356C94.441 21.1006 94.3371 21.0332 94.2582 20.9414C94.1792 20.8496 94.1285 20.7373 94.1122 20.6179C94.0959 20.4984 94.1145 20.3768 94.166 20.2675C94.2174 20.1582 94.2995 20.0659 94.4024 20.0015L110.028 9.92627C110.108 9.87315 110.198 9.83891 110.293 9.82621C110.388 9.81352 110.484 9.82273 110.575 9.8531L208.099 42.5371C208.226 42.5791 208.335 42.6598 208.413 42.7677C208.49 42.8756 208.53 43.005 208.528 43.1371L206.311 178.446C206.308 178.547 206.281 178.646 206.232 178.735C206.183 178.824 206.114 178.9 206.031 178.958L191.816 188.36C191.72 188.429 191.607 188.47 191.49 188.478C191.372 188.486 191.254 188.462 191.15 188.407C191.046 188.352 190.96 188.269 190.901 188.167C190.842 188.066 190.814 187.95 190.818 187.834Z" fill="#FFF3DE"/>
<path d="M84.4283 22.8551C84.4378 21.8477 84.6514 20.8525 85.0563 19.9284C87.1619 15.0774 95.1633 0.341396 112.503 4.63634C131.218 9.26786 201.302 31.862 214.52 36.135C215.143 36.3361 215.686 36.7276 216.071 37.2534C216.456 37.7792 216.663 38.4123 216.662 39.0617L215.923 182.075C215.923 182.261 215.874 182.444 215.781 182.606C215.688 182.768 215.554 182.903 215.392 182.998C215.231 183.093 215.047 183.145 214.859 183.149C214.671 183.152 214.485 183.108 214.32 183.019L206.895 179.068C206.719 178.972 206.573 178.831 206.472 178.66C206.37 178.489 206.318 178.294 206.319 178.095L208.535 43.4664C208.539 43.2373 208.469 43.0128 208.337 42.825C208.204 42.6371 208.015 42.4955 207.796 42.4201L111.336 10.1093C111.008 10.0001 110.66 9.96575 110.317 10.0088C109.974 10.0519 109.646 10.1713 109.356 10.3581L96.5228 19.4894C96.3606 19.6069 96.2342 19.7663 96.1576 19.9503C96.0809 20.1342 96.0569 20.3355 96.0882 20.5321C96.1195 20.7286 96.2049 20.9129 96.335 21.0645C96.4651 21.2162 96.6349 21.3294 96.8257 21.3917L190.818 51.4637C191.454 51.6651 192.008 52.0644 192.396 52.6022C192.785 53.14 192.988 53.7877 192.976 54.4489L190.848 196.394C190.842 196.806 190.738 197.211 190.544 197.576C190.35 197.941 190.071 198.255 189.731 198.492C189.391 198.73 188.999 198.885 188.587 198.943C188.175 199.002 187.755 198.964 187.361 198.831L82.9507 163.666C82.7321 163.593 82.5426 163.453 82.4098 163.266C82.2769 163.08 82.2076 162.856 82.2119 162.627L84.4283 22.8551Z" fill="#002C26"/>
</g>
</g>
</g>
<g clip-path="url(#clip5_274_294)">
<path d="M11.079 159.777L136.969 209.743C137.227 209.845 137.503 209.893 137.78 209.883C138.057 209.873 138.329 209.807 138.579 209.688L227.945 166.294C228.232 166.156 228.548 166.09 228.867 166.1C229.186 166.11 229.497 166.197 229.774 166.353C230.05 166.509 230.283 166.729 230.453 166.995C230.622 167.26 230.723 167.562 230.746 167.874L232.114 186.684C232.137 187.059 232.049 187.432 231.858 187.758C231.668 188.083 231.385 188.347 231.043 188.517L139.383 233.38C139.135 233.502 138.863 233.57 138.585 233.579C138.307 233.589 138.031 233.54 137.774 233.435L9.61448 182.086C9.26061 181.943 8.95795 181.699 8.74459 181.387C8.53122 181.075 8.41672 180.708 8.41553 180.332V161.539C8.41627 161.227 8.49468 160.921 8.64385 160.647C8.79303 160.372 9.00841 160.138 9.27123 159.964C9.53404 159.79 9.83624 159.682 10.1514 159.65C10.4665 159.617 10.785 159.661 11.079 159.777Z" fill="#FFF3DE"/>
<path d="M6.00132 159.508L136.036 211.497C136.147 211.546 136.268 211.571 136.39 211.571C136.512 211.571 136.633 211.546 136.744 211.497L223.447 168.57C224.05 168.269 224.718 168.12 225.394 168.136C226.069 168.151 226.731 168.33 227.318 168.657C227.906 168.984 228.403 169.448 228.764 170.009C229.124 170.57 229.338 171.21 229.386 171.872L230.279 183.721C230.358 184.749 230.124 185.776 229.606 186.672C229.089 187.568 228.312 188.293 227.374 188.754L137.508 232.803C137.398 232.856 137.277 232.884 137.154 232.884C137.032 232.884 136.911 232.856 136.8 232.803L9.22 180.838H9.17172L7.71527 180.127C7.21875 179.886 6.65471 179.813 6.11153 179.92C5.56835 180.027 5.07677 180.309 4.71387 180.72L3.64365 181.944C3.3571 182.272 3.15372 182.661 3.05016 183.081C2.94661 183.501 2.94584 183.939 3.0479 184.359C3.14997 184.779 3.35198 185.169 3.63736 185.498C3.92274 185.826 4.28336 186.084 4.68971 186.249L135.971 239.968C136.084 240.019 136.206 240.045 136.33 240.045C136.453 240.045 136.575 240.019 136.688 239.968L234.527 191.108C235.011 190.868 235.411 190.492 235.675 190.027C235.939 189.563 236.055 189.031 236.008 188.501L233.908 163.759C233.861 163.186 233.651 162.639 233.303 162.178C232.954 161.717 232.481 161.361 231.936 161.152L104.171 111.319C101.662 110.341 98.9652 109.913 96.2699 110.066C93.5746 110.218 90.946 110.948 88.5684 112.204L5.75993 155.93C5.42521 156.112 5.15022 156.385 4.96705 156.715C4.78388 157.045 4.70006 157.419 4.72536 157.794C4.75066 158.169 4.88406 158.53 5.10997 158.833C5.33588 159.137 5.645 159.371 6.00132 159.508Z" fill="#2B0A04"/>
<path d="M135.859 211H137.268L138 233.071C138.002 233.222 137.942 233.372 137.827 233.506C137.712 233.64 137.545 233.755 137.341 233.84C137.136 233.925 136.9 233.979 136.654 233.995C136.408 234.011 136.159 233.99 135.93 233.933C135.652 233.863 135.415 233.743 135.249 233.589C135.084 233.435 134.997 233.255 135 233.071L135.859 211Z" fill="#2B0A04"/>
</g>
</g>
<defs>
<clipPath id="clip0_274_294">
<rect width="240" height="240" fill="white"/>
</clipPath>
<clipPath id="clip1_274_294">
<rect width="116" height="168" fill="white" transform="translate(29 36)"/>
</clipPath>
<clipPath id="clip2_274_294">
<rect width="140" height="205" fill="white" transform="translate(87 -10)"/>
</clipPath>
<clipPath id="clip3_274_294">
<rect width="138.711" height="201.514" fill="white" transform="translate(86.4946 -10)"/>
</clipPath>
<clipPath id="clip4_274_294">
<rect width="134.443" height="195.116" fill="white" transform="translate(82.2266 3.86072)"/>
</clipPath>
<clipPath id="clip5_274_294">
<rect width="233" height="130" fill="white" transform="translate(3 110)"/>
</clipPath>
</defs>
</svg>
