<svg width="240" height="240" viewBox="0 0 240 240" fill="none" xmlns="http://www.w3.org/2000/svg">
<g clip-path="url(#clip0_331_232)">
<path d="M164.927 213.892L167.197 73.5925C167.227 71.5478 166.592 69.5478 165.387 67.8874C164.183 66.227 162.471 64.9942 160.506 64.3707L60.391 32.7698C60.2645 32.7318 60.1516 32.6586 60.0659 32.5589C59.9801 32.4591 59.9251 32.3371 59.9074 32.2073C59.8896 32.0775 59.9099 31.9454 59.9657 31.8266C60.0216 31.7079 60.1107 31.6076 60.2225 31.5376L77.1918 20.5906C77.2778 20.5328 77.3762 20.4956 77.4792 20.4818C77.5822 20.4681 77.687 20.4781 77.7855 20.5111L183.693 56.0233C183.83 56.0689 183.95 56.1566 184.033 56.2738C184.117 56.391 184.161 56.5316 184.158 56.6752L181.751 203.693C181.748 203.803 181.718 203.91 181.665 204.007C181.612 204.103 181.537 204.186 181.447 204.249L166.01 214.465C165.906 214.54 165.783 214.584 165.656 214.593C165.528 214.602 165.4 214.575 165.287 214.515C165.174 214.455 165.08 214.365 165.017 214.255C164.953 214.145 164.922 214.019 164.927 213.892Z" fill="#FFF3DE"/>
<path d="M49.3908 34.6381C49.4012 33.5435 49.6331 32.4622 50.0728 31.4581C52.3595 26.1873 61.0487 10.1762 79.8794 14.8428C100.202 19.8751 176.311 44.4244 190.665 49.0671C191.342 49.2856 191.932 49.7109 192.35 50.2823C192.768 50.8536 192.993 51.5414 192.992 52.2471L192.19 207.636C192.189 207.838 192.136 208.037 192.035 208.213C191.934 208.388 191.788 208.535 191.613 208.638C191.437 208.742 191.238 208.798 191.034 208.802C190.83 208.806 190.628 208.758 190.448 208.661L182.385 204.368C182.194 204.264 182.036 204.111 181.926 203.925C181.816 203.739 181.758 203.527 181.759 203.311L184.166 57.0329C184.17 56.7839 184.095 56.5401 183.951 56.336C183.807 56.1319 183.601 55.978 183.364 55.8961L78.6117 20.7893C78.2559 20.6707 77.8777 20.6334 77.5053 20.6802C77.1329 20.727 76.776 20.8567 76.4614 21.0596L62.525 30.9811C62.3489 31.1088 62.2116 31.282 62.1284 31.4819C62.0451 31.6817 62.0191 31.9005 62.0531 32.114C62.0871 32.3276 62.1798 32.5278 62.3211 32.6925C62.4623 32.8573 62.6467 32.9803 62.8539 33.0481L164.926 65.7222C165.617 65.941 166.218 66.3749 166.64 66.9592C167.062 67.5436 167.283 68.2473 167.269 68.9657L164.958 223.194C164.952 223.642 164.839 224.082 164.628 224.478C164.417 224.874 164.115 225.215 163.746 225.473C163.376 225.732 162.95 225.9 162.503 225.964C162.056 226.027 161.599 225.985 161.171 225.841L47.7862 187.634C47.5488 187.555 47.343 187.402 47.1988 187.199C47.0545 186.996 46.9792 186.753 46.9838 186.505L49.3908 34.6381Z" fill="#03002C"/>
</g>
<g clip-path="url(#clip1_331_232)">
<path d="M98.1912 118.964L94.6639 118.431L91.561 117.957L88.5298 117.525L85.1879 117.079C83.9763 116.928 82.6473 116.774 81.0582 116.608C80.3738 117.905 79.8313 118.986 79.2719 119.993C78.7126 121.001 78.1538 121.942 77.5377 122.964C76.9216 123.986 76.1959 125.072 75.2726 126.397L71.181 126.038L67.5777 125.714L64.2008 125.397L60.7221 125.067C59.5216 124.94 58.2706 124.81 56.9436 124.672C57.8006 123.279 58.6707 121.927 59.5281 120.61C60.3855 119.292 61.2147 118.02 62.0303 116.774C62.8459 115.529 63.615 114.313 64.367 113.167C65.1189 112.02 65.824 110.829 66.511 109.698C67.198 108.567 67.8632 107.464 68.5046 106.372C69.146 105.28 69.7655 104.215 70.3768 103.152C70.9881 102.088 71.5931 101.042 72.2063 99.9948C72.8196 98.9477 73.4255 97.9098 74.0644 96.868L75.9956 93.7244L77.9487 90.5532L79.9364 87.3196L81.9876 83.9869L84.0914 80.5313L86.3292 76.935L88.6821 73.1084L91.1677 69.058L95.4864 69.574L99.199 69.9769L102.912 70.3799L107.23 70.8959C107.421 72.5419 107.658 74.0742 107.868 75.5929C108.077 77.1117 108.265 78.5829 108.456 80.012C108.647 81.4412 108.834 82.8374 109.017 84.1925C109.199 85.5476 109.38 86.8862 109.555 88.1837C109.731 89.4811 109.897 90.7631 110.068 92.0194C110.239 93.2757 110.354 94.4884 110.576 95.7472C110.797 97.006 110.912 98.2105 111.061 99.4193C111.209 100.628 111.343 101.847 111.484 103.065C111.626 104.283 111.721 105.54 111.82 106.746C111.918 107.953 112.024 109.225 112.123 110.506C112.221 111.788 112.318 113.053 112.429 114.366C112.54 115.679 112.653 117.009 112.786 118.37C112.919 119.731 113.106 121.127 113.273 122.567C113.44 124.007 113.61 125.472 113.837 126.989C114.063 128.506 114.327 130.06 114.614 131.67C113.177 131.445 111.884 131.245 110.645 131.072C109.406 130.899 108.217 130.728 106.972 130.581C105.728 130.433 104.507 130.275 103.209 130.1C101.911 129.926 100.545 129.742 99.0173 129.528C98.9692 128.107 98.9168 126.937 98.8391 125.837C98.7614 124.736 98.6696 123.729 98.5763 122.639C98.4831 121.549 98.3455 120.364 98.1912 118.964ZM96.3444 104.356C96.1686 102.842 95.9735 101.522 95.8311 100.296C95.6887 99.0693 95.5558 97.9253 95.4239 96.7896C95.292 95.6538 95.2095 94.5124 95.0909 93.275C94.9722 92.0376 94.8522 90.717 94.7093 89.1989L92.5595 92.9768L90.7085 96.2362C90.1127 97.2896 89.5416 98.3402 88.9471 99.4769C88.3527 100.614 87.7348 101.836 87.0701 103.231L90.3137 103.622L93.1174 103.964L96.3444 104.356Z" fill="#C53100"/>
<path d="M108.303 86.1021L112.756 86.6276L116.888 87.1153L120.757 87.575L124.437 87.9818L127.985 88.4039L131.475 88.8326L134.965 89.2614L138.513 89.6834L142.193 90.0902L146.062 90.55L150.194 91.0377L154.647 91.5631C154.356 92.8647 154.1 94.0372 153.859 95.1328C153.619 96.2283 153.395 97.2469 153.168 98.2408C152.941 99.2347 152.719 100.195 152.484 101.19C152.248 102.185 152 103.206 151.726 104.305C151.453 105.405 151.156 106.582 150.774 107.894L146.339 107.458L142.305 107.093L138.606 106.73L135.149 106.372L131.816 106.001L128.507 105.551L125.115 105.11L121.431 104.588C120.896 106.093 120.498 107.198 120.122 108.351C119.747 109.504 119.366 110.608 118.889 112.114L122.551 112.723C123.667 112.911 124.729 113.071 125.951 113.238C127.173 113.404 128.496 113.584 130.289 113.777C131.659 113.926 132.993 114.121 134.275 114.381C135.508 114.631 136.726 114.946 137.925 115.325C139.032 115.678 140.112 116.11 141.157 116.618C142.122 117.093 143.045 117.65 143.914 118.283C144.734 118.877 145.492 119.552 146.177 120.297C146.997 121.194 147.677 122.209 148.197 123.307C148.714 124.421 149.082 125.598 149.288 126.809C149.511 128.124 149.593 129.46 149.533 130.792C149.474 132.29 149.295 133.781 148.999 135.25C148.757 136.508 148.435 137.749 148.036 138.965C147.665 140.104 147.211 141.213 146.676 142.285C146.163 143.308 145.564 144.287 144.887 145.212C144.228 146.121 143.488 146.969 142.676 147.745C141.844 148.537 140.948 149.258 139.995 149.9C139.033 150.549 138.022 151.121 136.971 151.611C135.907 152.1 134.807 152.507 133.68 152.827C132.511 153.156 131.319 153.397 130.115 153.55C128.842 153.714 127.56 153.793 126.276 153.787C124.904 153.78 123.533 153.694 122.171 153.53L118.184 153.059L114.603 152.641L111.276 152.251L108.084 151.871L104.769 151.514C103.61 151.39 102.411 151.271 101.136 151.152L97.0774 150.789C95.6505 150.654 94.1239 150.523 92.5129 150.385C92.9594 148.765 93.462 147.197 93.9694 145.67C94.4768 144.143 95.0045 142.647 95.5049 141.204C96.0054 139.762 96.4831 138.338 96.9335 136.968C97.384 135.598 97.8034 134.248 98.1854 132.936C98.5675 131.624 98.9203 130.348 99.2311 129.069C99.5418 127.79 99.8181 126.574 100.068 125.344C100.317 124.114 100.529 122.913 100.773 121.709C101.017 120.504 101.237 119.303 101.465 118.108L102.166 114.507C102.402 113.303 102.645 112.091 102.895 110.861C103.144 109.631 103.443 108.395 103.666 107.143C103.888 105.891 104.203 104.578 104.514 103.308C104.826 102.037 105.103 100.679 105.412 99.3164C105.721 97.9542 106.028 96.5674 106.346 95.1375C106.664 93.7076 106.995 92.2428 107.338 90.735C107.681 89.2272 107.946 87.7033 108.303 86.1021ZM123.194 138.397C123.961 138.509 124.741 138.494 125.503 138.354C126.146 138.231 126.751 137.961 127.273 137.565C127.794 137.116 128.203 136.55 128.464 135.914C128.725 135.278 128.832 134.589 128.777 133.904C128.798 132.948 128.582 132.001 128.148 131.149C127.73 130.378 127.103 129.739 126.339 129.307C125.449 128.818 124.474 128.501 123.467 128.373C121.827 128.13 120.685 127.937 119.552 127.743L115.852 127.089C115.7 128.441 115.572 129.565 115.428 130.625C115.284 131.684 115.195 132.645 115.067 133.703C114.939 134.76 114.794 135.878 114.601 137.235L117.554 137.643L120.142 138.001L123.194 138.397Z" fill="#77AD00"/>
<path d="M109.886 156.099C110.321 157.29 110.557 158.545 110.584 159.813C110.611 161.26 110.456 162.704 110.123 164.112C109.868 165.266 109.513 166.396 109.062 167.489C108.638 168.515 108.115 169.498 107.499 170.423C106.894 171.32 106.196 172.15 105.415 172.9C104.621 173.663 103.752 174.345 102.821 174.936C101.862 175.541 100.843 176.048 99.7819 176.449C98.6752 176.867 97.532 177.181 96.3671 177.387C95.1205 177.608 93.858 177.726 92.5922 177.742C91.1891 177.762 89.7862 177.691 88.3923 177.53L83.9637 177.001L80.0447 176.547L76.398 176.137L72.7843 175.722L68.9148 175.262L64.5201 174.739C64.854 173.204 65.1583 171.726 65.4329 170.304C65.7182 168.878 65.9424 167.5 66.2043 166.16C66.4662 164.82 66.6587 163.53 66.8706 162.263L67.4663 158.549C67.6602 157.342 67.8559 156.151 68.0536 154.977C68.2512 153.803 68.4508 152.646 68.6678 151.494C68.8848 150.343 69.144 149.195 69.439 148.068C69.734 146.941 70.0644 145.76 70.4326 144.617C70.8008 143.473 71.2035 142.267 71.6401 141.065C72.0767 139.863 72.5361 138.642 73.0266 137.401C73.5171 136.159 74.0366 134.881 74.5616 133.577C75.0866 132.274 75.6261 130.951 76.1424 129.574C76.6588 128.196 77.1641 126.794 77.5977 125.351C78.0311 123.886 78.3881 122.4 78.6671 120.898L83.1631 121.36C84.5003 121.513 85.7027 121.657 86.7933 121.772C87.8839 121.887 88.94 122.065 89.9539 122.239C90.9678 122.413 91.9586 122.532 92.9744 122.723L96.135 123.19C97.2415 123.37 98.4322 123.557 99.7577 123.753C100.935 123.931 102.101 124.177 103.25 124.49C104.325 124.78 105.376 125.152 106.394 125.601C107.317 126.001 108.19 126.51 108.992 127.118C109.721 127.679 110.377 128.328 110.945 129.052C111.691 130 112.289 131.055 112.719 132.182C113.168 133.344 113.453 134.563 113.566 135.804C113.683 137.187 113.617 138.58 113.371 139.947C113.166 141.167 112.817 142.358 112.33 143.496C111.862 144.569 111.258 145.578 110.533 146.499C109.818 147.398 109.006 148.214 108.11 148.932C107.185 149.657 106.177 150.27 105.107 150.757C106.226 151.375 107.228 152.184 108.065 153.149C108.844 154.016 109.461 155.015 109.886 156.099ZM85.3648 143.625C86.6681 143.774 87.6661 143.883 88.6714 143.983L92.0531 144.341C93.214 144.512 94.3983 144.268 95.3968 143.652C96.3568 142.947 97.0491 141.937 97.3606 140.789C97.5793 140.286 97.6961 139.745 97.7041 139.197C97.7121 138.649 97.6113 138.105 97.4074 137.597C97.16 137.183 96.8118 136.838 96.3952 136.595C95.9786 136.352 95.5071 136.218 95.0246 136.205L91.957 135.819L88.9295 135.42C88.4713 136.508 88.0681 137.422 87.6985 138.266L86.593 140.755C86.2215 141.582 85.8183 142.496 85.3648 143.625ZM94.3234 161.085C94.4722 160.552 94.5095 159.994 94.4329 159.446C94.3564 158.898 94.1676 158.372 93.8784 157.9C93.5112 157.484 93.0597 157.15 92.5538 156.921C92.0478 156.693 91.499 156.574 90.9435 156.573L87.6848 156.267L84.8898 156L81.8041 155.674C81.6327 156.786 81.5071 157.719 81.4069 158.581C81.3066 159.443 81.219 160.271 81.1333 161.115C81.0476 161.959 80.9642 162.895 80.867 163.999C81.9852 164.136 82.9411 164.242 83.8374 164.338L86.5006 164.621L89.611 164.943C90.1617 165.036 90.7255 165.016 91.2685 164.886C91.8116 164.755 92.3226 164.517 92.7711 164.184C93.651 163.359 94.201 162.243 94.3186 161.043L94.3234 161.085Z" fill="#3999FF"/>
</g>
<defs>
<clipPath id="clip0_331_232">
<rect width="146" height="212" fill="white" transform="translate(47 14)"/>
</clipPath>
<clipPath id="clip1_331_232">
<rect width="100.896" height="108.33" fill="white" transform="translate(51 73.6396) rotate(-6.62457)"/>
</clipPath>
</defs>
</svg>
