<svg width="240" height="240" viewBox="0 0 240 240" fill="none" xmlns="http://www.w3.org/2000/svg">
<g clip-path="url(#clip0_274_290)">
<path d="M164.927 213.892L167.197 73.5924C167.227 71.5477 166.592 69.5476 165.387 67.8873C164.183 66.2269 162.471 64.994 160.506 64.3705L60.391 32.7697C60.2645 32.7317 60.1516 32.6585 60.0659 32.5587C59.9801 32.459 59.9251 32.337 59.9074 32.2072C59.8896 32.0774 59.9099 31.9452 59.9657 31.8265C60.0216 31.7078 60.1107 31.6074 60.2225 31.5374L77.1918 20.5904C77.2778 20.5327 77.3762 20.4955 77.4792 20.4817C77.5822 20.4679 77.687 20.4779 77.7855 20.5109L183.693 56.0231C183.83 56.0687 183.95 56.1565 184.033 56.2737C184.117 56.3909 184.161 56.5315 184.158 56.675L181.751 203.693C181.748 203.802 181.718 203.91 181.665 204.006C181.612 204.103 181.537 204.186 181.447 204.249L166.01 214.465C165.906 214.539 165.783 214.584 165.656 214.593C165.528 214.602 165.4 214.575 165.287 214.515C165.174 214.455 165.08 214.365 165.017 214.255C164.953 214.145 164.922 214.019 164.927 213.892Z" fill="#FFF3DE"/>
<path d="M49.3908 34.6379C49.4012 33.5434 49.6331 32.4621 50.0728 31.458C52.3595 26.1872 61.0487 10.1761 79.8794 14.8427C100.202 19.875 176.311 44.4243 190.665 49.067C191.342 49.2854 191.932 49.7108 192.35 50.2821C192.768 50.8535 192.993 51.5413 192.992 52.247L192.19 207.636C192.189 207.838 192.136 208.037 192.035 208.212C191.934 208.388 191.788 208.535 191.613 208.638C191.437 208.742 191.238 208.798 191.034 208.802C190.83 208.806 190.628 208.758 190.448 208.661L182.385 204.368C182.194 204.264 182.036 204.111 181.926 203.925C181.816 203.739 181.758 203.527 181.759 203.311L184.166 57.0328C184.17 56.7838 184.095 56.5399 183.951 56.3358C183.807 56.1318 183.601 55.9778 183.364 55.896L78.6117 20.7892C78.2559 20.6706 77.8777 20.6333 77.5053 20.6801C77.1329 20.7269 76.776 20.8566 76.4614 21.0595L62.525 30.981C62.3489 31.1086 62.2116 31.2819 62.1284 31.4818C62.0451 31.6816 62.0191 31.9003 62.0531 32.1139C62.0871 32.3275 62.1798 32.5276 62.3211 32.6924C62.4623 32.8572 62.6467 32.9802 62.8539 33.048L164.926 65.7221C165.617 65.9409 166.218 66.3748 166.64 66.9591C167.062 67.5435 167.283 68.2472 167.269 68.9656L164.958 223.194C164.952 223.642 164.839 224.082 164.628 224.478C164.417 224.874 164.115 225.215 163.746 225.473C163.376 225.732 162.95 225.899 162.503 225.963C162.056 226.027 161.599 225.985 161.171 225.841L47.7862 187.634C47.5488 187.554 47.343 187.402 47.1988 187.199C47.0545 186.996 46.9792 186.753 46.9838 186.505L49.3908 34.6379Z" fill="#03002C"/>
</g>
<defs>
<clipPath id="clip0_274_290">
<rect width="146" height="212" fill="white" transform="translate(47 14)"/>
</clipPath>
</defs>
</svg>
