<svg width="218" height="221" viewBox="0 0 218 221" fill="none" xmlns="http://www.w3.org/2000/svg">
<path d="M168.927 9.93689H34.3652V43.0598H168.927V9.93689Z" fill="#F2B851"/>
<path d="M179.159 42.4901C176.787 39.4428 171.196 29.6715 179.497 13.2492H184.684V0H51.6355C36.2996 0 23.8188 12.5072 23.8188 27.8696V176.194C23.8188 188.734 27.2769 198.294 34.1002 204.6C41.3806 211.338 49.9661 212 52.9008 212C53.4506 212 53.8084 211.98 53.9143 211.967H188.181V42.4901H179.159ZM51.6355 42.4901C43.6065 42.4901 37.068 35.9318 37.068 27.8696C37.068 19.8075 43.5999 13.2492 51.6355 13.2492H165.029C160.226 25.8359 161.537 35.7065 164.194 42.4901H51.6355Z" fill="#03002C"/>
<g clip-path="url(#clip0_274_136)">
<path d="M78.3734 41.4037H51.1523V133.536C51.1523 134.389 52.1697 134.815 52.7652 134.213L78.3734 108.263L103.982 134.211C104.577 134.815 105.594 134.387 105.594 133.534V41.4037H78.3734Z" fill="#D75A4A"/>
<path d="M105.594 41.4037H51.1523V60.3666H105.594V41.4037Z" fill="#C03B2B"/>
</g>
<path d="M201.206 173.503V198.979L169.022 220.348L169 220.334L136.645 198.85V173.404L169 194.888L201.206 173.503Z" fill="#006659"/>
<path d="M201.206 173.503V198.979L169.022 220.348L169 220.334V194.888L201.206 173.503Z" fill="#005349"/>
<path d="M217.42 169.918L169 202.068L120.581 169.918L169 139L217.42 169.918Z" fill="#00DDC0"/>
<path d="M217.42 169.918L169 202.068V139L217.42 169.918Z" fill="#00AC93"/>
<path d="M191.248 184.092V226.497H185.266V187.292L169.83 177.005C168.456 176.09 168.085 174.233 169 172.857C169.018 172.829 169.036 172.803 169.058 172.777C169.636 171.966 170.555 171.525 171.491 171.525C172.061 171.525 172.637 171.689 173.148 172.028L191.248 184.092Z" fill="#FF9900"/>
<path d="M191.248 184.092V226.497H188.256V185.753L169.058 172.777C169.636 171.966 170.555 171.525 171.49 171.525C172.061 171.525 172.637 171.689 173.147 172.028L191.248 184.092Z" fill="#FF8800"/>
<defs>
<clipPath id="clip0_274_136">
<rect width="93.5723" height="93.5723" fill="white" transform="translate(42.646 42.6458)"/>
</clipPath>
</defs>
</svg>
