<svg width="352" height="230" viewBox="0 0 352 230" fill="none" xmlns="http://www.w3.org/2000/svg">
<g clip-path="url(#clip0_274_200)">
<path d="M115.448 137.236C115.448 137.236 115.448 137.235 115.448 137.235C114.927 136.896 114.398 136.57 113.861 136.255C108.196 132.934 101.633 131.027 94.5915 131.027C87.5504 131.027 81.0571 132.934 75.3927 136.255C74.8553 136.569 74.3261 136.896 73.8058 137.235C73.8055 137.235 73.8055 137.236 73.8053 137.236C73.805 137.236 73.8044 137.236 73.8039 137.236C73.4872 137.443 73.1746 137.655 72.8648 137.871C72.782 137.928 72.6998 137.987 72.6176 138.045C72.3693 138.22 72.1235 138.399 71.8793 138.58C71.8136 138.629 71.7471 138.677 71.682 138.726C71.0569 139.196 70.4477 139.686 69.8535 140.193C69.8077 140.233 69.7622 140.272 69.7166 140.311C69.4281 140.56 69.1425 140.812 68.8614 141.069C68.8567 141.074 68.8517 141.078 68.8471 141.082C68.2382 141.64 67.6486 142.217 67.077 142.813C67.0654 142.825 67.0538 142.837 67.0422 142.849C62.6838 147.401 59.4397 153.029 57.751 159.295C68.58 165.624 81.1785 169.254 94.6262 169.254C108.074 169.254 120.673 165.624 131.502 159.295C129.028 150.112 123.217 142.298 115.448 137.236Z" fill="#ACB958"/>
<path d="M66.54 163.665C69.0456 164.707 71.6213 165.615 74.2585 166.378V149.167C70.4013 153.069 67.6568 158.073 66.54 163.665Z" fill="#949C53"/>
<path d="M114.995 149.168V166.378C117.632 165.616 120.207 164.708 122.713 163.665C121.597 158.073 118.852 153.069 114.995 149.168Z" fill="#949C53"/>
<path d="M84.9993 154.982C86.3175 154.982 87.3862 153.913 87.3862 152.595C87.3862 151.277 86.3175 150.208 84.9993 150.208C83.681 150.208 82.6123 151.277 82.6123 152.595C82.6123 153.913 83.681 154.982 84.9993 154.982Z" fill="#949C53"/>
<path d="M85.0788 164.53C86.3971 164.53 87.4658 163.461 87.4658 162.143C87.4658 160.824 86.3971 159.756 85.0788 159.756C83.7606 159.756 82.6919 160.824 82.6919 162.143C82.6919 163.461 83.7606 164.53 85.0788 164.53Z" fill="#949C53"/>
<path d="M117.577 138.729L117.441 138.683C116.784 138.192 116.113 137.719 115.423 137.27C114.911 136.937 114.39 136.615 113.86 136.306C108.253 133.021 101.743 131.123 94.7844 131.081L94.6266 131.028V131.078C94.6004 131.078 94.5748 131.077 94.5486 131.077C87.5016 131.077 81.0636 132.983 75.3925 136.306C75.1404 136.453 74.8907 136.603 74.6427 136.756C74.4027 136.903 74.1648 137.054 73.929 137.207C73.9221 137.212 73.9146 137.216 73.9077 137.22C73.9074 137.22 73.9072 137.221 73.9072 137.221C73.8818 137.238 73.8556 137.254 73.8299 137.27C73.8305 137.271 73.8313 137.272 73.8319 137.273C73.1046 137.745 72.4014 138.251 71.7095 138.771C71.9122 138.953 72.1186 139.14 72.3161 139.316C74.2418 141.036 76.3736 142.534 78.6518 143.769C83.5411 146.42 89.0654 147.821 94.6269 147.821C100.592 147.821 106.386 146.236 111.461 143.284C112.866 142.467 114.638 142.657 115.88 143.706C121.315 148.299 125.258 154.605 126.857 161.787C128.438 161.01 129.988 160.18 131.503 159.295C129.259 150.972 124.276 143.773 117.577 138.729Z" fill="#949C53"/>
<path d="M158.267 95.5809C158.008 88.3146 152.217 82.3191 144.964 81.8192C142.255 81.6325 139.696 82.2052 137.47 83.3382C137.463 83.3126 137.455 83.2867 137.449 83.2607L122.785 68.1845L122.563 67.9651C121.331 66.7521 119.897 65.8229 118.355 65.1853C114.578 63.6241 110.148 63.82 106.413 65.9462C102.842 67.9798 98.7659 69.0549 94.6262 69.0549C90.4872 69.0549 86.4112 67.9798 82.8391 65.9462C77.5796 62.9523 70.9388 63.7822 66.6905 67.9635L51.7822 83.3385L82.0641 137.475C85.8931 139.551 90.2066 140.661 94.626 140.661C101.096 140.661 107.341 138.284 112.167 133.975C119.426 127.493 129.875 117.251 135.409 107.598C137.794 109.375 140.752 110.427 143.955 110.427C152.039 110.427 158.558 103.729 158.267 95.5809Z" fill="#E1B872"/>
<path d="M51.7813 83.3374C49.5558 82.2052 46.9975 81.6325 44.2888 81.8192C37.0356 82.3194 31.2459 88.3144 30.986 95.5801C30.6944 103.729 37.2138 110.427 45.2978 110.427C48.5011 110.427 51.4583 109.375 53.8438 107.598C59.3778 117.251 69.8264 127.493 77.0854 133.975C78.6152 135.341 80.2882 136.511 82.0649 137.474C88.475 137.433 94.654 135.064 99.4381 130.792C109.736 121.598 126.452 104.837 126.452 92.923C126.452 92.8954 126.452 92.8678 126.452 92.8403C126.443 87.9844 124.442 83.3438 121.009 79.9104L115.872 74.7734C114.647 73.5681 112.703 73.3515 111.138 74.2423C106.129 77.0944 100.42 78.6019 94.627 78.6019C88.8343 78.6019 83.1248 77.0947 78.1161 74.2429C76.5513 73.3518 74.6069 73.5686 73.388 74.7687L73.212 74.9434L60.6328 87.5226C60.6248 87.5306 60.6168 87.5386 60.6088 87.5466C59.4589 88.686 57.5548 88.521 56.5525 87.25C55.271 85.6251 53.6441 84.2851 51.7835 83.3385" fill="#ECCE93"/>
<path d="M143.955 100.879C146.592 100.879 148.729 98.7421 148.729 96.1057C148.729 93.4693 146.592 91.332 143.955 91.332C141.319 91.332 139.182 93.4693 139.182 96.1057C139.182 98.7421 141.319 100.879 143.955 100.879Z" fill="#D5A150"/>
<path d="M45.298 100.879C47.9344 100.879 50.0717 98.7421 50.0717 96.1057C50.0717 93.4693 47.9344 91.332 45.298 91.332C42.6616 91.332 40.5244 93.4693 40.5244 96.1057C40.5244 98.7421 42.6616 100.879 45.298 100.879Z" fill="#E1B872"/>
<path d="M83.4875 98.4926C82.1691 98.4926 81.1006 97.4238 81.1006 96.1057C81.1006 94.7894 80.0298 93.7187 78.7136 93.7187C77.3974 93.7187 76.3266 94.7894 76.3266 96.1057C76.3266 97.4238 75.2584 98.4926 73.9397 98.4926C72.621 98.4926 71.5527 97.4238 71.5527 96.1057C71.5527 92.1572 74.7651 88.9451 78.7133 88.9451C82.6615 88.9451 85.8739 92.1572 85.8739 96.1057C85.8745 97.4238 84.806 98.4926 83.4875 98.4926Z" fill="#474641"/>
<path d="M115.313 98.4926C113.994 98.4926 112.926 97.4238 112.926 96.1057C112.926 94.7894 111.855 93.7187 110.539 93.7187C109.223 93.7187 108.152 94.7894 108.152 96.1057C108.152 97.4238 107.084 98.4926 105.765 98.4926C104.446 98.4926 103.378 97.4238 103.378 96.1057C103.378 92.1572 106.59 88.9451 110.539 88.9451C114.487 88.9451 117.699 92.1572 117.699 96.1057C117.699 97.4238 116.631 98.4926 115.313 98.4926Z" fill="#474641"/>
<path d="M67.1327 90.0795C66.6452 90.0795 66.153 89.9306 65.729 89.6216C64.6635 88.8452 64.4293 87.3524 65.2054 86.287C67.2698 83.4533 70.2334 81.2979 73.5495 80.2175C74.8034 79.8092 76.15 80.4945 76.5583 81.7476C76.9666 83.0009 76.2819 84.348 75.0282 84.7566C72.6598 85.528 70.5412 87.0699 69.0636 89.0982C68.5968 89.7394 67.8699 90.0795 67.1327 90.0795Z" fill="#BB9430"/>
<path d="M122.121 90.0795C121.384 90.0795 120.657 89.7393 120.19 89.0979C118.712 87.0696 116.594 85.5279 114.225 84.7563C112.972 84.348 112.287 83.0008 112.695 81.7472C113.103 80.4939 114.449 79.8088 115.704 80.2172C119.02 81.2975 121.983 83.4527 124.048 86.2866C124.824 87.3521 124.59 88.8449 123.524 89.6212C123.1 89.9311 122.609 90.0795 122.121 90.0795Z" fill="#BB9430"/>
<path d="M94.6269 108.04C90.6784 108.04 87.4663 104.828 87.4663 100.88C87.4663 99.5614 88.5351 98.4927 89.8533 98.4927C91.1714 98.4927 92.2402 99.5614 92.2402 100.88C92.2402 102.196 93.3109 103.267 94.6272 103.267C95.9434 103.267 97.0141 102.196 97.0141 100.88C97.0141 99.5614 98.0829 98.4927 99.4011 98.4927C100.719 98.4927 101.788 99.5614 101.788 100.88C101.787 104.828 98.5753 108.04 94.6269 108.04Z" fill="#474641"/>
<path d="M143.955 81.7845C143.944 70.4073 139.39 60.1091 132.029 52.6538C124.662 45.1865 114.484 40.569 103.24 40.569C103.24 32.264 95.4161 26.2244 87.5236 28.4745C64.1368 35.1352 45.3182 56.3021 45.2986 81.7845H45.2983C47.6326 81.7845 49.8347 82.3464 51.7822 83.3374L54.3051 84.617C55.2873 85.1152 56.4786 84.9254 57.2571 84.1466C57.2571 84.1466 66.6946 74.7091 69.8405 71.5632C69.9067 71.497 69.9729 71.4313 70.0391 71.366C72.8222 68.6264 77.0846 68.1616 80.4783 70.0936C84.6516 72.4703 89.4807 73.828 94.6268 73.828C99.7731 73.828 104.602 72.4703 108.776 70.0939C112.17 68.1618 116.432 68.6267 119.215 71.3662C119.281 71.4319 119.348 71.4973 119.414 71.5635C122.56 74.7094 131.997 84.1469 131.997 84.1469C132.776 84.9257 133.967 85.1152 134.949 84.6172L137.467 83.3402C139.415 82.3475 141.619 81.7845 143.956 81.7845H143.955Z" fill="#BB9430"/>
<path d="M103.24 40.5687L90.1717 52.6908C87.2151 55.4334 88.7752 60.4186 92.7766 60.9226C93.6953 61.0385 94.6314 61.0981 95.5816 61.0981C104.483 61.0981 112.163 55.8764 115.73 48.3299C117.021 45.597 115.479 42.3474 112.538 41.6507C109.551 40.9434 106.439 40.5687 103.24 40.5687Z" fill="#D9B43A"/>
<path d="M82.6174 30.1116C82.7857 30.1201 82.9515 30.1317 83.1142 30.1463C89.192 30.686 91.6879 38.2684 87.2473 42.453L58.5964 69.4521C56.2547 71.6589 53.2208 73.0384 50.0067 73.1929C48.5956 73.2607 47.2021 73.0933 46.1587 72.4529C49.7739 52.9598 64.3927 37.0821 82.6174 30.1116Z" fill="#D9B43A"/>
<path opacity="0.2" d="M129.633 96.1074V96.1057C129.678 95.2513 129.243 94.4228 128.482 94.0313C126.668 93.0983 124.859 94.3905 124.859 96.1057C124.859 96.1063 124.859 96.1065 124.859 96.1074C124.859 101.381 120.584 105.653 115.31 105.653H108.948C106.312 105.653 104.175 103.516 104.175 100.88V100.878C104.175 98.2416 102.038 96.1071 99.401 96.1071H89.8538C87.2174 96.1071 85.0801 98.2416 85.0801 100.878V100.88C85.0801 103.516 82.9428 105.653 80.3065 105.653H73.9407C68.6669 105.653 64.3916 101.381 64.3916 96.1074V96.1057C64.4365 95.2513 64.0012 94.4228 63.24 94.0313C61.4263 93.0983 59.6176 94.3905 59.6176 96.1057C59.6176 96.1063 59.6176 96.1065 59.6176 96.1074C59.6176 100.815 57.3485 104.987 53.8423 107.595C59.376 117.249 69.8254 127.493 77.0853 133.975C78.6151 135.341 80.288 136.511 82.0647 137.475C85.894 139.551 90.2074 140.661 94.6271 140.661C101.097 140.661 107.342 138.284 112.168 133.975C119.428 127.493 129.876 117.251 135.41 107.597C131.902 104.99 129.633 100.817 129.633 96.1074Z" fill="#3C2912"/>
</g>
<g clip-path="url(#clip1_274_200)">
<path d="M211.609 69.649V105.426L212.169 116.01C212.764 127.24 216.878 137.747 224.066 146.394L226.493 149.314L226.562 149.188C235.242 158.189 246.712 162.718 258.201 162.785L275.374 109.834L258.201 48.9822L211.609 69.649Z" fill="#848075"/>
<path d="M258.201 48.9824V162.785C270.06 162.855 281.94 158.172 290.794 148.733C299.499 139.453 304.831 126.97 304.831 113.242L258.201 48.9824Z" fill="#989487"/>
<path d="M284.486 140.075C282.686 137.97 280.637 136.085 278.382 134.467C272.748 130.421 265.839 128.038 258.373 128.038C250.906 128.038 243.998 130.421 238.363 134.467C236.109 136.086 234.059 137.97 232.259 140.075C227.321 145.851 224.264 153.282 224.04 161.422C227.348 163.021 230.785 164.391 234.33 165.523C235.332 165.843 236.343 166.143 237.362 166.424C237.496 166.46 237.63 166.496 237.765 166.533C244.335 168.304 251.242 169.254 258.372 169.254C265.502 169.254 272.41 168.304 278.98 166.533C279.114 166.496 279.248 166.461 279.382 166.424C280.402 166.143 281.413 165.843 282.415 165.523C284.16 164.966 285.876 164.344 287.567 163.671C288.599 163.261 289.624 162.837 290.633 162.384C291.329 162.073 292.02 161.753 292.705 161.422C292.481 153.282 289.424 145.851 284.486 140.075Z" fill="#5D7A9A"/>
<path d="M237.765 162.29C237.765 155.656 243.191 149.999 249.825 150.02C250.883 150.023 251.908 150.163 252.884 150.423C253.246 150.52 253.609 150.606 253.974 150.683C256.15 151.142 258.201 149.493 258.201 147.269C258.201 145.523 256.913 144.026 255.18 143.811C248.409 142.974 242.454 139.508 238.363 134.467C236.109 136.086 234.059 137.97 232.259 140.076C227.321 145.851 224.264 153.282 224.04 161.422C227.348 163.021 230.785 164.392 234.33 165.523C235.464 165.885 236.608 166.222 237.764 166.533C237.764 166.533 237.764 166.533 237.764 166.532V162.384L237.765 162.29Z" fill="#668BB7"/>
<path d="M232.259 140.075C227.321 145.851 224.264 153.282 224.04 161.422C227.348 163.021 230.785 164.391 234.33 165.523C235.332 165.843 236.343 166.143 237.362 166.424C237.496 166.46 237.63 166.496 237.765 166.533V160.667C237.765 153.166 235.76 146.134 232.259 140.075Z" fill="#5D7A9A"/>
<path d="M284.486 140.075C283.534 141.724 282.694 143.445 281.973 145.227C280.045 149.996 278.981 155.207 278.981 160.667V166.532C279.115 166.496 279.249 166.46 279.383 166.423C280.403 166.142 281.413 165.843 282.416 165.523C284.161 164.966 285.877 164.343 287.568 163.671C288.599 163.26 289.624 162.836 290.634 162.384C291.33 162.072 292.021 161.752 292.705 161.421C292.481 153.282 289.424 145.851 284.486 140.075Z" fill="#55687D"/>
<path d="M311.609 74.8009C309.09 74.8009 306.714 75.4076 304.612 76.477C299.984 58.9704 287.074 42.9679 270.755 37.3936C266.804 36.0437 262.654 35.303 258.372 35.303C236.406 35.303 217.881 54.7319 212.133 76.4772L233.13 131.188C240.467 135.723 249.113 138.342 258.372 138.342C280.165 138.342 298.569 123.842 304.471 103.965C306.607 105.079 309.033 105.713 311.609 105.713C320.145 105.713 327.065 98.7931 327.065 90.2569C327.065 81.7207 320.145 74.8009 311.609 74.8009Z" fill="#ECCE93"/>
<path d="M296.153 85.105L289.184 86.1751H278.88C278.88 82.214 277.333 78.4953 274.522 75.7039C271.705 72.9062 261.632 71.3651 257.643 71.3651L257.65 71.3549C251.647 71.2343 245.751 69.6209 240.555 66.662C238.866 65.7003 236.767 65.934 235.451 67.2298L235.261 67.418L221.686 80.9937C220.68 81.9996 219.361 82.5028 218.043 82.5028C216.725 82.5028 215.406 81.9999 214.4 80.9937C213.157 79.7512 212.684 78.0321 212.977 76.4245L212.134 76.4767C210.032 75.4073 207.656 74.8007 205.137 74.8007C196.6 74.8007 189.681 81.7204 189.681 90.2566C189.681 98.7928 196.6 105.713 205.137 105.713C207.712 105.713 210.139 105.079 212.275 103.965C215.669 115.397 223.199 125.049 233.131 131.188C238.222 132.488 243.287 133.19 248.069 133.19C274.625 133.19 296.153 111.661 296.153 85.105Z" fill="#F8E5B5"/>
<path d="M241.195 77.455C239.321 77.455 237.448 77.159 235.627 76.5661C234.275 76.1258 233.535 74.6719 233.975 73.3192C234.416 71.966 235.871 71.2266 237.223 71.6672C239.82 72.513 242.571 72.5125 245.178 71.6658C246.53 71.226 247.984 71.9662 248.423 73.3195C248.863 74.6724 248.122 76.1255 246.77 76.5653C244.946 77.1587 243.07 77.455 241.195 77.455Z" fill="#848075"/>
<path d="M275.541 77.455C273.667 77.455 271.794 77.159 269.974 76.5661C268.621 76.1258 267.881 74.6719 268.322 73.3192C268.762 71.966 270.216 71.2266 271.569 71.6672C274.166 72.513 276.918 72.5125 279.524 71.6658C280.875 71.226 282.33 71.9662 282.77 73.3195C283.21 74.6724 282.469 76.1255 281.116 76.5653C279.292 77.1587 277.416 77.455 275.541 77.455Z" fill="#848075"/>
<path d="M233.913 97.5427C229.896 93.5253 229.896 86.9884 233.913 82.971C237.931 78.9535 244.468 78.9535 248.485 82.971C252.503 86.9884 252.503 93.5253 248.485 97.5427C244.468 101.56 237.931 101.56 233.913 97.5427Z" fill="#A1C5D1"/>
<path d="M268.26 97.5427C264.242 93.5253 264.242 86.9884 268.26 82.971C272.277 78.9535 278.814 78.9535 282.831 82.971C286.849 86.9884 286.849 93.5253 282.831 97.5427C278.814 101.56 272.277 101.56 268.26 97.5427Z" fill="#A1C5D1"/>
<path d="M268.26 82.971C264.242 86.9884 264.242 93.5252 268.26 97.5427L282.832 82.971C278.814 78.9535 272.277 78.9535 268.26 82.971Z" fill="#DBEBE1"/>
<path d="M233.913 82.971C229.896 86.9884 229.896 93.5252 233.913 97.5427L248.485 82.971C244.468 78.9535 237.931 78.9535 233.913 82.971Z" fill="#DBEBE1"/>
<path d="M275.546 77.3768C271.015 77.3768 267.026 79.7307 264.729 83.2772C263.05 81.7463 260.818 80.8116 258.372 80.8116C255.927 80.8116 253.695 81.7466 252.015 83.2772C249.719 79.7307 245.73 77.3768 241.199 77.3768C237.826 77.3768 234.753 78.682 232.455 80.8113H222.996C222.522 80.8113 222.137 80.4259 222.137 79.9528C222.137 78.53 220.984 77.3768 219.561 77.3768C218.138 77.3768 216.985 78.5303 216.985 79.9528C216.985 83.2667 219.682 85.9635 222.996 85.9635H229.058C228.581 87.3071 228.32 88.7516 228.32 90.2568C228.32 97.3589 234.097 103.137 241.2 103.137C248.302 103.137 254.08 97.3589 254.08 90.2568C254.08 87.8895 256.005 85.9635 258.373 85.9635C260.741 85.9635 262.666 87.8892 262.666 90.2568C262.666 97.3589 268.444 103.137 275.546 103.137C282.648 103.137 288.426 97.3589 288.426 90.2568C288.426 83.1547 282.648 77.3768 275.546 77.3768ZM241.199 97.9847C236.938 97.9847 233.471 94.5182 233.471 90.2568C233.471 85.9955 236.938 82.529 241.199 82.529C245.46 82.529 248.927 85.9955 248.927 90.2568C248.927 94.5182 245.46 97.9847 241.199 97.9847ZM275.546 97.9847C271.285 97.9847 267.818 94.5182 267.818 90.2568C267.818 85.9955 271.285 82.529 275.546 82.529C279.807 82.529 283.273 85.9955 283.273 90.2568C283.273 94.5182 279.807 97.9847 275.546 97.9847Z" fill="#3E474C"/>
<path d="M262.151 103.137H254.594C253.171 103.137 252.019 101.983 252.019 100.561C252.019 99.1379 253.171 97.9847 254.594 97.9847H262.151C263.574 97.9847 264.727 99.1382 264.727 100.561C264.727 101.983 263.574 103.137 262.151 103.137Z" fill="#BD7155"/>
<path d="M205.136 95.4079C207.981 95.4079 210.288 93.1013 210.288 90.256C210.288 87.4107 207.981 85.1041 205.136 85.1041C202.29 85.1041 199.984 87.4107 199.984 90.256C199.984 93.1013 202.29 95.4079 205.136 95.4079Z" fill="#ECCE93"/>
<path d="M311.609 95.4079C314.454 95.4079 316.761 93.1013 316.761 90.256C316.761 87.4107 314.454 85.1041 311.609 85.1041C308.764 85.1041 306.457 87.4107 306.457 90.256C306.457 93.1013 308.764 95.4079 311.609 95.4079Z" fill="#E1B872"/>
<path d="M304.831 113.242V63.3972C304.831 54.3007 300.461 45.6451 293.142 40.243C282.444 32.3482 269.138 28 255.672 28C243.576 28 231.857 31.3989 221.783 37.8295C219.329 39.3968 217.739 41.9559 217.424 44.8514C217.138 47.4739 217.916 50.0278 219.616 52.0423L219.971 52.4639L220.192 52.5706L218.937 53.5241C209.293 60.85 211.897 69.6491 211.897 75.2975L212.176 76.4524L214.951 77.8602C215.334 78.0536 215.762 78.1557 216.191 78.1557C216.926 78.1557 217.617 77.8688 218.133 77.3512L231.93 63.5561C233.673 61.8396 235.994 60.8944 238.465 60.8944C239.69 60.8944 240.9 61.1361 242.021 61.5998C242.387 61.751 242.742 61.9256 243.087 62.1232C247.744 64.7995 253.061 66.2146 258.474 66.2146L258.837 66.2132C264.195 66.2132 269.232 68.2856 273.021 72.0487C276.812 75.8145 278.9 80.8315 278.9 86.1749V134.091C278.9 134.091 296.336 129.4 304.831 113.242Z" fill="#989487"/>
<path d="M217.423 44.8513C217.449 44.6113 217.487 44.3746 217.531 44.1393C217.487 44.3746 217.449 44.6113 217.423 44.8513Z" fill="#989487"/>
<path d="M217.563 43.9755C217.61 43.7445 217.662 43.5156 217.725 43.2902C217.662 43.5153 217.61 43.7443 217.563 43.9755Z" fill="#989487"/>
<g opacity="0.5">
<path opacity="0.5" d="M255.672 33.1519C248.732 33.1519 241.93 34.3685 235.548 36.7191C234.691 37.0349 233.628 37.5117 232.492 38.0662C228.703 39.9138 228.886 45.3772 232.781 46.9883L243.989 51.6243C244.558 51.8597 245.118 52.1347 245.653 52.4423C245.68 52.4578 245.707 52.473 245.734 52.4884C250.121 54.9882 255.655 54.163 259.226 50.5922L267.621 42.1976C270.433 39.3858 268.904 34.5401 264.978 33.9039C261.91 33.4065 258.796 33.1519 255.672 33.1519Z" fill="#ADA999"/>
</g>
<path d="M273.02 66.8345C269.232 63.0711 264.195 60.9989 258.836 60.9989L258.473 61.0003C253.061 61.0003 247.744 59.5856 243.086 56.9089C242.742 56.7114 242.386 56.5365 242.021 56.3856L220.192 47.3567L219.97 47.2499L219.615 46.8284C218.725 45.7734 218.091 44.5694 217.726 43.2863C217.584 43.7939 217.481 44.3167 217.423 44.8514C217.137 47.4739 217.916 50.0278 219.615 52.0423L219.97 52.4639L220.192 52.5706L218.937 53.5241C209.292 60.85 211.896 69.649 211.896 75.2975L212.175 76.4524L214.951 77.8602C215.333 78.0536 215.762 78.1557 216.19 78.1557C216.925 78.1557 217.616 77.8688 218.132 77.3512L231.929 63.5561C233.672 61.8396 235.994 60.8944 238.465 60.8944C239.69 60.8944 240.9 61.1361 242.021 61.5998C242.387 61.751 242.742 61.9256 243.087 62.1232C247.744 64.7995 253.061 66.2146 258.474 66.2146L258.837 66.2132C264.195 66.2132 269.232 68.2856 273.021 72.0487C276.812 75.8145 278.9 80.8315 278.9 86.1749V80.9606C278.9 75.617 276.812 70.6 273.02 66.8345Z" fill="#848075"/>
<path d="M287.822 144.703C288.314 145.521 288.773 146.361 289.197 147.221C288.773 146.36 288.314 145.52 287.822 144.703Z" fill="#5D7A9A"/>
<path d="M291.669 161.903C292.014 161.743 292.362 161.587 292.705 161.422C292.677 160.404 292.604 159.398 292.49 158.404C292.605 159.398 292.677 160.404 292.705 161.422C292.362 161.587 292.014 161.743 291.669 161.903Z" fill="#5D7A9A"/>
<path d="M291.694 154.027C292.05 155.453 292.318 156.914 292.49 158.404C292.318 156.914 292.051 155.453 291.694 154.027Z" fill="#5D7A9A"/>
<path d="M289.197 147.221C289.622 148.082 290.011 148.963 290.363 149.862C290.011 148.963 289.621 148.082 289.197 147.221Z" fill="#5D7A9A"/>
<path d="M261.145 128.148C262.517 128.258 263.866 128.448 265.187 128.714C263.866 128.448 262.516 128.258 261.145 128.148Z" fill="#5D7A9A"/>
<path d="M245.058 130.719C245.089 130.706 245.119 130.691 245.15 130.678C245.12 130.691 245.089 130.705 245.058 130.719Z" fill="#668BB7"/>
<path d="M246.333 130.21C246.344 130.206 246.354 130.201 246.365 130.197C246.354 130.201 246.344 130.206 246.333 130.21Z" fill="#668BB7"/>
</g>
<g clip-path="url(#clip2_274_200)">
<path d="M143.765 164.779C134.199 170.367 127.006 179.572 124.056 190.518C135.772 197.364 149.341 201.384 163.831 201.631L165.253 201.643L182.319 183.866L163.831 164.779H143.765Z" fill="#C98A2E"/>
<path d="M186.741 164.779H165.253V201.643C180.276 201.643 194.351 197.588 206.45 190.518C203.5 179.572 196.307 170.367 186.741 164.779Z" fill="#AD712C"/>
<path d="M183.908 164.596L178.29 158.978H165.253L154.231 176.755L165.253 198.088L179.563 183.779C181.26 182.081 181.26 179.33 179.563 177.633L178.29 176.36L183.908 170.742C185.605 169.044 185.605 166.293 183.908 164.596Z" fill="#915729"/>
<path d="M152.216 158.978L146.598 164.596C144.901 166.293 144.901 169.044 146.598 170.741L152.216 176.36L150.943 177.632C149.246 179.33 149.246 182.081 150.943 183.778L165.253 198.087V158.978H152.216Z" fill="#AD712C"/>
<path d="M135.749 170.831C130.217 176.13 126.109 182.901 124.056 190.518C127.198 192.354 130.474 193.985 133.865 195.396L142.498 179.148C140.602 176.096 138.33 173.304 135.749 170.831Z" fill="#AB5034"/>
<path d="M197.252 173.43C196.457 172.529 195.625 171.662 194.757 170.831C192.176 173.303 189.904 176.097 188.008 179.147L196.641 195.395C196.845 195.31 197.049 195.225 197.252 195.139C200.425 193.787 203.497 192.243 206.449 190.517C204.719 184.096 201.526 178.274 197.252 173.43Z" fill="#8D472E"/>
<path d="M188.008 198.431C190.957 197.578 193.838 196.562 196.641 195.396C195.4 189.128 192.329 183.519 188.008 179.148V198.431Z" fill="#915729"/>
<path d="M133.865 195.396C136.668 196.563 139.548 197.578 142.498 198.431V179.148C138.177 183.518 135.106 189.128 133.865 195.396Z" fill="#D5A150"/>
<path d="M151.031 166.167L165.213 180.31L179.475 166.089L151.031 166.167Z" fill="#D5A150"/>
<path d="M236.351 119.281C236.061 111.164 229.593 104.466 221.49 103.907C218.464 103.698 215.605 104.338 213.119 105.603C210.523 95.7828 205.41 86.4196 198.582 78.9829C189.759 69.3728 178.072 62.9802 165.253 62.9802C144.261 62.9802 126.306 80.1207 118.989 100.465C118.38 102.157 117.845 103.87 117.388 105.599L118.701 145.895C120.034 151.328 121.79 155.938 123.991 158.067C132.099 165.91 151.445 169.644 165.339 169.644C179.233 169.644 198.406 165.91 206.514 158.067C210.172 154.529 212.603 144.145 213.9 134.504C215.877 135.378 218.062 135.867 220.362 135.867C229.394 135.867 236.677 128.385 236.351 119.281Z" fill="#D5A150"/>
<path d="M188.983 96.0315C187.618 94.6888 185.446 94.4476 183.699 95.4427C180.815 97.0854 177.721 98.3251 174.514 99.1442C171.501 99.9139 168.388 100.312 165.253 100.312C158.782 100.312 152.403 98.6286 146.808 95.4427C145.059 94.4479 142.887 94.6894 141.525 96.0303L141.333 96.2208L127.275 110.279C126.384 111.17 125.326 111.812 124.194 112.209C122.647 109.378 120.269 107.065 117.389 105.599C117.388 105.601 117.388 105.602 117.388 105.604C114.901 104.338 112.043 103.699 109.017 103.908C100.914 104.466 94.4456 111.164 94.1551 119.281C93.8291 128.385 101.112 135.868 110.144 135.868C112.444 135.868 114.629 135.378 116.606 134.504C117.123 138.344 117.82 142.3 118.702 145.895C128.222 151.127 143.277 153.645 154.674 153.645C168.568 153.645 187.74 149.911 195.848 142.068C199.28 138.749 201.632 129.405 202.981 120.302C203.819 114.639 201.927 108.915 197.868 104.879C193.709 100.744 188.983 96.0315 188.983 96.0315Z" fill="#E1B872"/>
<path d="M220.362 125.201C223.308 125.201 225.696 122.813 225.696 119.867C225.696 116.922 223.308 114.534 220.362 114.534C217.417 114.534 215.029 116.922 215.029 119.867C215.029 122.813 217.417 125.201 220.362 125.201Z" fill="#C98A2E"/>
<path d="M110.143 125.201C113.089 125.201 115.476 122.813 115.476 119.867C115.476 116.922 113.089 114.534 110.143 114.534C107.198 114.534 104.81 116.922 104.81 119.867C104.81 122.813 107.198 125.201 110.143 125.201Z" fill="#D5A150"/>
<path d="M128.89 66.5355V75.6924L112.367 89.483C110.857 92.9715 110.144 96.7508 110.144 100.547V103.868C112.751 103.868 115.212 104.496 117.387 105.603L120.206 107.033C121.303 107.589 122.634 107.377 123.504 106.507C123.504 106.507 134.047 95.964 137.562 92.4493C137.636 92.3752 137.71 92.302 137.784 92.2288C140.893 89.1683 145.655 88.649 149.446 90.8075L165.253 66.5358H128.89V66.5355Z" fill="#6D5B4D"/>
<path d="M128.89 66.5355V75.6924C119.699 78.0973 114.872 83.7149 112.367 89.483C112.186 89.9023 112.016 90.3256 111.858 90.7527C110.966 93.1628 112.391 95.8453 114.91 96.3539C115.575 96.4879 116.233 96.6502 116.883 96.8392C119.273 97.5349 121.851 96.8473 123.61 95.0879L132.154 86.5455C135.458 83.2927 139.851 81.5091 144.537 81.5091C147.796 81.5091 151.013 82.4031 153.804 84.0895C153.811 84.0878 153.816 84.0867 153.823 84.0849L165.253 66.5355H128.89Z" fill="#827061"/>
<path d="M195.594 60.6886C181.105 54.5116 153.29 48.8066 131.645 62.6111C122.127 68.6794 128.89 75.6924 128.89 75.6924L149.446 90.8081C154.109 93.4626 159.503 94.9793 165.253 94.9793C171.002 94.9793 176.397 93.4626 181.06 90.8078C184.851 88.6493 189.613 89.1686 192.722 92.2292C192.797 92.3024 192.87 92.3756 192.944 92.4496C196.459 95.9641 207.002 106.508 207.002 106.508C207.872 107.378 209.203 107.59 210.3 107.033L213.113 105.606C215.29 104.497 217.752 103.868 220.362 103.868C220.362 100.044 220.362 96.9206 220.362 96.4638C220.363 95.3522 220.187 71.176 195.594 60.6886Z" fill="#625143"/>
<path d="M143.283 57.1162C139.287 58.4338 135.374 60.233 131.645 62.6111C131.257 62.8586 130.898 63.1079 130.563 63.3578L155.212 81.8081C158.281 83.4484 161.74 84.313 165.253 84.313C168.953 84.313 172.594 83.3536 175.782 81.5386C175.977 81.4277 176.173 81.3202 176.371 81.2159C181.339 78.5977 182.673 72.0452 178.896 67.8907C168.405 56.354 154.077 55.5205 143.283 57.1162Z" fill="#827061"/>
<path d="M188.364 114.534H177.697C176.225 114.534 175.031 115.728 175.031 117.201C175.031 118.673 176.225 119.867 177.697 119.867C177.697 122.813 180.085 125.201 183.031 125.201C185.976 125.201 188.364 122.813 188.364 119.867C189.836 119.867 191.03 118.673 191.03 117.201C191.03 115.728 189.836 114.534 188.364 114.534Z" fill="#474641"/>
<path d="M152.809 114.534H142.143C140.67 114.534 139.476 115.728 139.476 117.201C139.476 118.673 140.67 119.867 142.143 119.867C142.143 122.813 144.531 125.201 147.476 125.201C150.421 125.201 152.809 122.813 152.809 119.867C154.282 119.867 155.476 118.673 155.476 117.201C155.476 115.728 154.282 114.534 152.809 114.534Z" fill="#474641"/>
<path d="M170.586 122.534H159.92C158.447 122.534 157.253 123.728 157.253 125.201C157.253 126.674 158.447 127.867 159.92 127.867H170.586C172.059 127.867 173.253 126.674 173.253 125.201C173.253 123.728 172.06 122.534 170.586 122.534Z" fill="#474641"/>
<path d="M188.364 103.868H177.697C176.224 103.868 175.031 105.062 175.031 106.534C175.031 108.007 176.224 109.201 177.697 109.201H188.364C189.837 109.201 191.03 108.007 191.03 106.534C191.03 105.062 189.837 103.868 188.364 103.868Z" fill="#625143"/>
<path d="M152.809 103.868H142.143C140.67 103.868 139.476 105.062 139.476 106.534C139.476 108.007 140.67 109.201 142.143 109.201H152.809C154.282 109.201 155.476 108.007 155.476 106.534C155.476 105.062 154.282 103.868 152.809 103.868Z" fill="#625143"/>
</g>
<defs>
<clipPath id="clip0_274_200">
<rect width="141.254" height="141.254" fill="white" transform="translate(24 28)"/>
</clipPath>
<clipPath id="clip1_274_200">
<rect width="141.254" height="141.254" fill="white" transform="translate(187.746 28)"/>
</clipPath>
<clipPath id="clip2_274_200">
<rect width="147.552" height="147.552" fill="white" transform="translate(91.4775 54.0917)"/>
</clipPath>
</defs>
</svg>
