<svg width="24" height="24" viewBox="0 0 24 24" fill="none" xmlns="http://www.w3.org/2000/svg">
<path d="M7 7.00006V5.00006C7.00001 4.42093 7.16765 3.85419 7.48266 3.36825C7.79768 2.8823 8.24662 2.49792 8.77529 2.2615C9.30395 2.02508 9.88975 1.94673 10.462 2.03591C11.0342 2.12508 11.5683 2.37797 12 2.76406C12.4317 2.37797 12.9658 2.12508 13.538 2.03591C14.1103 1.94673 14.696 2.02508 15.2247 2.2615C15.7534 2.49792 16.2023 2.8823 16.5173 3.36825C16.8324 3.85419 17 4.42093 17 5.00006V7.00006H18.5C18.8978 7.00006 19.2794 7.15809 19.5607 7.4394C19.842 7.7207 20 8.10223 20 8.50006V12.8181L19.031 11.8641C18.4681 11.3101 17.7098 10.9997 16.92 11.0001L14.501 11.0021V7.00006H15.501V5.00006C15.501 4.69129 15.4058 4.39004 15.2282 4.13742C15.0507 3.8848 14.7995 3.69312 14.509 3.58856C14.2185 3.48399 13.9028 3.47162 13.605 3.55314C13.3072 3.63466 13.0418 3.8061 12.845 4.04406C12.946 4.34406 13.001 4.66606 13.001 5.00006V11.1731C12.4164 11.3793 11.9101 11.7617 11.5519 12.2676C11.1938 12.7736 11.0013 13.3782 11.001 13.9981V16.9351C11.001 17.7201 11.31 18.4731 11.86 19.0331L14.774 22.0001H8C6.93913 22.0001 5.92172 21.5786 5.17157 20.8285C4.42143 20.0783 4 19.0609 4 18.0001V8.50006C4 8.10223 4.15804 7.7207 4.43934 7.4394C4.72064 7.15809 5.10218 7.00006 5.5 7.00006H7ZM8.5 5.00006V7.00006H11.5V5.00006C11.5 4.60223 11.342 4.2207 11.0607 3.9394C10.7794 3.65809 10.3978 3.50006 10 3.50006C9.60218 3.50006 9.22064 3.65809 8.93934 3.9394C8.65804 4.2207 8.5 4.60223 8.5 5.00006ZM12.572 18.3321L16.573 22.4041C17.354 23.2001 18.637 23.2041 19.425 22.4161L22.418 19.4201C22.6041 19.2341 22.7516 19.013 22.8518 18.7697C22.952 18.5264 23.003 18.2657 23.0019 18.0026C23.0008 17.7394 22.9476 17.4791 22.8453 17.2367C22.743 16.9942 22.5937 16.7745 22.406 16.5901L18.33 12.5771C17.954 12.207 17.4475 11.9997 16.92 12.0001L14.002 12.0021C13.4719 12.0015 12.9633 12.2115 12.5879 12.5857C12.2125 12.96 12.0011 13.468 12 13.9981V16.9351C12 17.4571 12.205 17.9591 12.572 18.3321ZM15.996 15.0001C15.9961 15.1314 15.9703 15.2614 15.9201 15.3828C15.8699 15.5041 15.7963 15.6144 15.7035 15.7073C15.6106 15.8002 15.5004 15.8739 15.3791 15.9242C15.2578 15.9746 15.1278 16.0005 14.9965 16.0006C14.7313 16.0007 14.4769 15.8955 14.2892 15.708C14.1016 15.5206 13.9961 15.2663 13.996 15.0011C13.9959 14.7358 14.1011 14.4814 14.2885 14.2938C14.476 14.1062 14.7303 14.0007 14.9955 14.0006C15.2607 14.0004 15.5151 14.1057 15.7028 14.2931C15.8904 14.4805 15.9959 14.7348 15.996 15.0001Z" fill="#1D1D1D"/>
</svg>
