<svg width="255" height="230" viewBox="0 0 255 230" fill="none" xmlns="http://www.w3.org/2000/svg">
<path d="M134.693 42.8972L153.08 18.9484L171.51 42.8972H186.749L161.741 10.3736C157.122 5.84715 149.043 5.84715 144.425 10.3736L143.862 11.0042L119.375 42.8972H134.693Z" fill="#BDC2C5"/>
<path d="M64.2502 42.0209H235.75C242.512 42.0209 248 47.509 248 54.2711V176.771C248 183.539 242.512 189.021 235.75 189.021H64.2502C57.4882 189.021 52 183.539 52 176.771V54.2711C52 47.4971 57.4882 42.0209 64.2502 42.0209Z" fill="#FA9E45"/>
<path d="M76.4997 54.2711H223.499C230.261 54.2711 235.749 59.7593 235.749 66.5213V164.521C235.749 171.29 230.261 176.771 223.499 176.771H76.4997C69.7377 176.771 64.2495 171.29 64.2495 164.521V66.5213C64.2502 59.7467 69.7377 54.2711 76.4997 54.2711Z" fill="#37A18E"/>
<path d="M151.7 95.8909L131.784 156.594H115.741L142.949 83.3679H153.159L151.7 95.8909ZM168.247 156.594L148.28 95.8909L146.671 83.3679H156.981L184.34 156.594H168.247ZM167.341 129.336V141.155H128.666V129.336H167.341Z" fill="white"/>
<path d="M45.8663 192.493C38.0158 197.079 32.113 204.633 29.6924 213.616C39.6205 219.418 51.171 222.745 63.4999 222.745L78.0886 206.99L63.4999 192.493H45.8663Z" fill="#E8C6B3"/>
<path d="M97.3075 213.616C95.039 205.197 89.7114 198.033 82.589 193.392C82.5888 193.392 82.5888 193.392 82.5883 193.392C82.1112 193.081 81.6263 192.781 81.1336 192.493H63.4999H45.8663C45.4383 192.743 45.0176 193.004 44.6015 193.271C44.5382 193.312 44.474 193.351 44.4109 193.392C41.8335 195.072 39.4921 197.083 37.4448 199.364C40.1452 201.508 43.0188 203.345 46.0206 204.805C51.5897 207.514 57.4043 208.9 63.3071 208.93C63.4293 209.521 63.5002 210.128 63.5002 210.748V222.746C75.8291 222.745 87.3794 219.418 97.3075 213.616Z" fill="#CE9276"/>
<path d="M33.5214 204.704C31.8528 207.464 30.5523 210.472 29.6929 213.661C33.9545 216.152 38.5159 218.185 43.3087 219.696L44.8268 216.002C41.9799 211.422 38.1025 207.55 33.5214 204.704Z" fill="#ECCE93"/>
<path d="M82.1733 216.002L83.6914 219.696C88.484 218.185 93.0454 216.152 97.3072 213.662C96.4476 210.472 95.1473 207.464 93.4787 204.704C88.8979 207.55 85.0206 211.422 82.1733 216.002Z" fill="#E1B872"/>
<path d="M37.7505 217.622C40.0475 218.578 42.409 219.41 44.8269 220.11V204.331C41.29 207.908 38.7742 212.496 37.7505 217.622Z" fill="#CE9276"/>
<path d="M82.1733 204.331V220.11C84.5913 219.41 86.9525 218.578 89.2498 217.622C88.226 212.496 85.7101 207.908 82.1733 204.331Z" fill="#BD7155"/>
<path d="M63.5001 199.45L51.8291 187.779V205.485C51.8291 207.565 54.3432 208.606 55.814 207.136L63.5001 199.45Z" fill="#BD7155"/>
<path d="M63.5 199.45L75.171 187.779V205.485C75.171 207.565 72.6568 208.606 71.1861 207.136L63.5 199.45Z" fill="#BD7155"/>
<path d="M66.5924 197.876L70.1227 222.422L63.4987 226L60.5811 215.278L63.4987 197.876H66.5924Z" fill="#8D472E"/>
<path d="M60.4056 197.876L56.8755 222.422L63.4992 226V197.876H60.4056Z" fill="#AB5034"/>
<path d="M63.5006 200.909C65.9176 200.909 67.8771 198.949 67.8771 196.532C67.8771 194.115 65.9176 192.156 63.5006 192.156C61.0835 192.156 59.124 194.115 59.124 196.532C59.124 198.949 61.0835 200.909 63.5006 200.909Z" fill="#8D472E"/>
<path d="M108.725 142.554C106.584 142.554 104.565 143.07 102.779 143.978C98.618 128.238 86.5759 113.928 71.559 110.04L30 187.096C30.2722 187.272 30.5459 187.448 30.8281 187.615C50.8852 199.504 76.1158 199.504 96.1729 187.615C103.255 183.417 107.25 176.261 107.611 168.763C107.979 168.794 108.35 168.814 108.725 168.814C115.977 168.814 121.855 162.936 121.855 155.684C121.855 148.433 115.977 142.554 108.725 142.554Z" fill="#E1B872"/>
<path d="M93.6857 153.077C92.733 150.712 92.1359 148.218 91.89 145.68C90.5502 131.843 82.7076 118.014 71.5583 110.04C69.5512 109.521 67.4916 109.185 65.3895 109.059C64.7634 109.022 64.1336 109 63.4999 109C44.8396 109 29.1024 125.505 24.2192 143.978C22.4341 143.069 20.4153 142.554 18.2748 142.554C11.0234 142.554 5.14502 148.432 5.14502 155.684C5.14502 162.935 11.0234 168.813 18.2748 168.813C18.6512 168.813 19.0225 168.794 19.3909 168.763C19.7394 175.96 23.4363 182.843 29.9993 187.096C47.6604 193.272 67.5179 191.501 83.9175 181.779C94.1093 175.738 97.9134 163.572 93.6857 153.077Z" fill="#ECCE93"/>
<path d="M18.275 160.06C20.6921 160.06 22.6515 158.101 22.6515 155.684C22.6515 153.267 20.6921 151.307 18.275 151.307C15.8579 151.307 13.8984 153.267 13.8984 155.684C13.8984 158.101 15.8579 160.06 18.275 160.06Z" fill="#E1B872"/>
<path d="M108.725 160.06C111.142 160.06 113.102 158.101 113.102 155.684C113.102 153.267 111.142 151.307 108.725 151.307C106.308 151.307 104.349 153.267 104.349 155.684C104.349 158.101 106.308 160.06 108.725 160.06Z" fill="#D5A150"/>
<path opacity="0.2" d="M26.5326 145.151C27.4329 145.608 28.525 145.434 29.2391 144.72C29.2391 144.72 37.8914 136.067 40.7755 133.183C40.8363 133.123 40.8969 133.062 40.9579 133.002C43.5095 130.491 47.4171 130.065 50.5286 131.836C54.3546 134.015 58.7819 135.259 63.5 135.259C68.2182 135.259 72.6455 134.015 76.4717 131.836C79.5832 130.065 83.4906 130.491 86.0424 133.003C86.1034 133.063 86.164 133.123 86.2245 133.184C89.1086 136.068 97.7609 144.72 97.7609 144.72C98.4748 145.434 99.5671 145.608 100.467 145.151L102.781 143.978C97.8976 125.505 82.1604 109 63.5 109C44.8397 109 29.1025 125.505 24.2193 143.978C23.9801 143.856 23.7363 143.743 23.4888 143.635C23.7379 143.743 23.9835 143.858 24.2244 143.98L26.5326 145.151Z" fill="#151515"/>
<path opacity="0.3" d="M29.9987 187.096C30.2709 187.272 30.5447 187.448 30.8269 187.615C50.8839 199.505 76.1146 199.505 96.1716 187.615C103.253 183.417 107.248 176.261 107.61 168.765C101.361 168.239 96.3592 163.339 95.6762 157.137L95.6785 157.179C95.676 157.156 95.6751 157.132 95.6723 157.109C95.6554 156.952 95.6435 156.794 95.6321 156.635C95.6266 156.557 95.6186 156.48 95.6143 156.401C95.6017 156.168 95.5946 155.933 95.5944 155.697C95.5944 155.693 95.5942 155.689 95.5942 155.686V155.684C95.6353 154.901 95.2361 154.141 94.5384 153.782C92.8755 152.927 91.2174 154.112 91.2174 155.684V155.686C91.2174 160.52 87.2977 164.437 82.4627 164.437H76.6287C74.2117 164.437 72.2522 162.478 72.2522 160.061V160.059C72.2522 157.642 70.2929 155.685 67.8757 155.685H59.1224C56.7054 155.685 54.7458 157.642 54.7458 160.059V160.06C54.7458 162.477 52.7863 164.437 50.3693 164.437H44.5353C39.7004 164.437 35.7806 160.52 35.7806 155.685V155.684C35.8218 154.901 35.4226 154.141 34.7249 153.782C33.062 152.927 31.4039 155.685 31.4039 155.685V155.686C31.4032 162.56 26.1183 168.197 19.3901 168.763C19.7389 175.96 23.4358 182.843 29.9987 187.096Z" fill="#574C44"/>
<path d="M48.9122 160.06C51.3293 160.06 53.2887 158.101 53.2887 155.684C53.2887 153.267 51.3293 151.307 48.9122 151.307C46.4951 151.307 44.5356 153.267 44.5356 155.684C44.5356 158.101 46.4951 160.06 48.9122 160.06Z" fill="#474641"/>
<path d="M78.0894 160.06C80.5065 160.06 82.466 158.101 82.466 155.684C82.466 153.267 80.5065 151.307 78.0894 151.307C75.6723 151.307 73.7129 153.267 73.7129 155.684C73.7129 158.101 75.6723 160.06 78.0894 160.06Z" fill="#474641"/>
<path d="M63.5003 166.625C59.8802 166.625 56.9355 163.68 56.9355 160.06C56.9355 158.852 57.9154 157.872 59.1238 157.872C60.3322 157.872 61.3121 158.852 61.3121 160.06C61.3121 161.267 62.2936 162.249 63.5003 162.249C64.7071 162.249 65.6886 161.267 65.6886 160.06C65.6886 158.852 66.6685 157.872 67.8769 157.872C69.0855 157.872 70.0651 158.852 70.0651 160.06C70.0651 163.68 67.1205 166.625 63.5003 166.625Z" fill="#474641"/>
<path d="M44.8553 145.39C43.9328 145.39 43.0749 144.802 42.7747 143.877C42.4013 142.728 43.0301 141.493 44.1796 141.12C47.2794 140.113 50.5524 140.113 53.6449 141.12C54.7941 141.494 55.4223 142.729 55.0485 143.878C54.6746 145.027 53.4399 145.656 52.2903 145.281C50.0831 144.563 47.7462 144.563 45.5319 145.283C45.3071 145.355 45.0792 145.39 44.8553 145.39Z" fill="#AD712C"/>
<path d="M74.0326 145.39C73.11 145.39 72.2522 144.802 71.9519 143.877C71.5785 142.728 72.2074 141.493 73.3568 141.12C76.4566 140.113 79.7297 140.113 82.8222 141.12C83.9714 141.494 84.5996 142.729 84.2257 143.878C83.8519 145.027 82.6172 145.656 81.4675 145.281C79.2603 144.563 76.9235 144.563 74.7092 145.283C74.4843 145.355 74.2565 145.39 74.0326 145.39Z" fill="#AD712C"/>
</svg>
