<svg width="197" height="197" viewBox="0 0 197 197" fill="none" xmlns="http://www.w3.org/2000/svg">
<path d="M53.1374 109.762C53.1478 109.804 53.1582 109.84 53.1685 109.881C54.1575 113.993 54.9394 120.134 54.0125 128.103C53.0235 136.637 56.8605 145.015 63.9078 149.929L73.5184 156.634C73.5184 156.634 70.2199 181.862 79.3748 195.138V195.144C34.1287 186.237 0 146.356 0 98.5C0 70.6367 11.573 45.4713 30.1727 27.5603C22.8457 42.3075 15.3944 65.0755 25.88 84.1412C30.6801 92.8662 38.2556 98.5259 46.67 102.161C49.896 103.549 52.3089 106.355 53.1374 109.762Z" fill="#1EA6C6"/>
<path d="M98.5028 0.00256348C119.971 0.00256348 139.834 6.86869 156.016 18.5349C156.016 18.5349 147.539 31.5371 147.881 44.5133C147.959 47.615 150.387 50.1523 153.478 50.4785C153.696 50.4992 153.919 50.5147 154.136 50.5147C156.492 50.5147 158.667 49.1788 159.734 47.0299C162.002 42.4835 167.972 36.974 183.045 47.9464L183.05 47.9412C184.174 49.8105 185.236 51.7212 186.23 53.6733C186.23 53.6733 180.969 54.8539 173.921 53.984C171.964 53.7407 169.986 54.217 168.386 55.3666C167.273 56.1692 165.994 57.3239 164.575 58.7479C157.383 65.9765 156.192 81.0136 156.192 81.0136C156.052 84.1515 156.192 87.6208 156.694 91.4526C157.818 99.9654 165.621 105.972 174.118 104.729C174.243 104.714 174.367 104.693 174.491 104.677C180.622 103.725 186.219 108.349 186.572 114.542C186.887 120.129 188.078 126.462 191.221 131.805H191.227C177.572 169.812 141.212 196.997 98.5028 196.997C91.9577 196.997 85.5628 196.36 79.375 195.144V195.138C79.375 195.138 82.1452 192.544 89.4152 184.995L104.732 168.751C109.154 163.894 113.566 158.876 117.403 154.19C124.222 145.859 122.068 133.411 112.867 127.823C104.276 122.609 94.1532 115.878 87.634 109.617C84.3563 106.474 79.8462 104.967 75.3309 105.454C69.5314 106.081 61.3138 107.344 53.1687 109.881C54.5668 96.0093 30.5405 83.6233 36.7542 72.7494C40.1199 66.8515 45.7744 66.7428 50.2431 67.8768C53.8004 68.7778 57.5338 67.4833 59.8432 64.6302C65.3113 57.8831 77.2571 51.5607 85.9874 47.5632C91.7091 44.9483 93.5577 37.7352 89.7984 32.6969C78.2668 17.2145 61.93 7.01886 61.93 7.01886C73.2389 2.49322 85.5783 0.00256348 98.5028 0.00256348ZM102.516 31.8426L114.425 16.3083C114.425 16.3083 109.247 11.6481 90.6062 10.0946C86.8832 9.78395 100.962 19.933 102.516 31.8426Z" fill="#1EA6C6"/>
<path d="M183.05 47.9412L183.045 47.9464C167.972 36.9741 162.001 42.4835 159.733 47.0299C158.667 49.1788 156.492 50.5147 154.136 50.5147C153.918 50.5147 153.696 50.4992 153.478 50.4785C150.387 50.1523 147.958 47.615 147.881 44.5133C147.539 31.5371 156.015 18.5349 156.015 18.5349C166.905 26.3745 176.127 36.3889 183.05 47.9412Z" fill="#F7CF52"/>
<path d="M197 98.5C197 110.187 194.965 121.403 191.226 131.805H191.221C188.078 126.462 186.887 120.129 186.571 114.542C186.219 108.349 180.622 103.725 174.491 104.677C174.366 104.693 174.242 104.714 174.118 104.729C165.621 105.972 157.817 99.9654 156.694 91.4526C156.191 87.6208 156.052 84.1515 156.191 81.0136C156.191 81.0136 157.382 65.9765 164.575 58.7479C165.993 57.3239 167.272 56.1692 168.386 55.3666C169.986 54.217 171.964 53.7407 173.921 53.984C180.968 54.8539 186.229 53.6733 186.229 53.6733C193.116 67.1208 197 82.3547 197 98.5Z" fill="#F7CF52"/>
<path d="M114.425 16.3083L102.516 31.8425C100.962 19.9329 86.8832 9.78391 90.6062 10.0946C109.247 11.648 114.425 16.3083 114.425 16.3083Z" fill="#F7CF52"/>
<path d="M89.798 32.6969C93.5573 37.7352 91.7087 44.9482 85.9869 47.5632C77.2567 51.5606 65.3109 57.8831 59.8428 64.6301C57.5334 67.4832 53.8 68.7778 50.2427 67.8768C45.774 66.7428 40.1195 66.8515 36.7538 72.7493C30.5401 83.6233 54.5664 96.0093 53.1683 109.881C53.1579 109.84 53.1476 109.804 53.1372 109.762C52.3087 106.355 49.8957 103.549 46.6698 102.161C38.2554 98.5258 30.6799 92.8662 25.8798 84.1411C15.3942 65.0754 22.8455 42.3074 30.1724 27.5602C39.2548 18.8041 50.02 11.7826 61.9296 7.0188C61.9296 7.0188 78.2664 17.2144 89.798 32.6969Z" fill="#F7CF52"/>
<path d="M112.867 127.823C122.068 133.41 124.222 145.859 117.403 154.19C113.566 158.876 109.154 163.894 104.732 168.751L89.415 184.995C82.145 192.544 79.3747 195.138 79.3747 195.138C70.2199 181.862 73.5183 156.634 73.5183 156.634L63.9078 149.929C56.8604 145.015 53.0235 136.636 54.0125 128.103C54.9394 120.134 54.1575 113.993 53.1685 109.881C61.3136 107.344 69.5312 106.081 75.3306 105.454C79.8459 104.967 84.356 106.474 87.6337 109.617C94.1529 115.878 104.276 122.609 112.867 127.823Z" fill="#F7CF52"/>
<path opacity="0.3" d="M98.5026 0.00256348C101.506 0.00256348 104.478 0.137194 107.409 0.401276C57.2074 4.92692 17.8644 47.1179 17.8644 98.5C17.8644 149.892 57.2229 192.089 107.44 196.599C104.499 196.863 101.516 196.997 98.5026 196.997C44.1017 196.997 0 152.901 0 98.5C0 44.0991 44.1017 0.00256348 98.5026 0.00256348Z" fill="#808080"/>
</svg>
